#!OML:ASF G:\acrobat\cartwheel_test\acrobat_wednesday\Session 1\acrobatwednesday.ASF
:FULLY-SPECIFIED
:DEGREES
1
root 26.3686 16.4201 0.917118 -53.5862 86.2434 -61.0578
lowerback -7.10696 0.533955 3.83839
upperback -0.723631 0.397215 1.35748
thorax 3.25377 0.255026 -0.712886
lowerneck -26.5577 -3.46765 -4.59017
upperneck 39.2701 -2.79568 1.68171
head 19.9445 -1.18929 1.08752
rclavicle -3.62782e-015 9.14409e-015
rhumerus -35.4029 -7.1837 -87.9538
rradius 25.0116
rwrist 55.2964
rhand -30.2332 13.97
rfingers 7.12502
rthumb -3.54266 -15.9803
lclavicle -3.62782e-015 9.14409e-015
lhumerus -23.919 10.3003 81.2767
lradius 15.9621
lwrist 6.80714
lhand -24.7715 -12.5389
lfingers 7.12502
lthumb 1.7323 17.4338
rfemur 8.86625 32.3517 31.1775
rtibia -5.53002
rfoot -46.0972 -0.43625
rtoes 19.6442
lfemur 2.53956 -4.50441 -17.8567
ltibia 2.27567
lfoot 5.5586 16.1563
ltoes -40.364
2
root 26.3691 16.3615 0.910719 -32.101 86.9118 -40.773
lowerback -8.38367 0.637562 2.53898
upperback -1.04695 0.614015 1.00109
thorax 3.63097 0.349805 -0.32006
lowerneck -26.5571 -3.45527 -4.64201
upperneck 39.3117 -2.78287 1.76489
head 19.974 -1.1785 1.14256
rclavicle 1.08089e-015 2.26615e-014
rhumerus -35.3579 -5.68229 -88.8768
rradius 25.3547
rwrist 48.2425
rhand -19.4171 19.7792
rfingers 7.12502
rthumb 6.9025 -10.0883
lclavicle 1.08089e-015 2.26615e-014
lhumerus -23.8638 10.067 81.1263
lradius 16.4055
lwrist 7.57418
lhand -24.9598 -12.8508
lfingers 7.12502
lthumb 1.5504 17.1233
rfemur 7.20341 31.8337 28.5372
rtibia -5.63377
rfoot -44.7812 5.28647
rtoes 0.662875
lfemur 1.29825 -4.72909 -19.5451
ltibia 2.267
lfoot 5.79146 16.7053
ltoes -40.4232
3
root 26.3805 16.3031 0.903096 7.22437 86.8871 -1.87055
lowerback -9.03974 0.711873 0.572596
upperback -1.13311 0.905017 0.47331
thorax 3.89298 0.468875 0.280158
lowerneck -26.5461 -3.4557 -4.7339
upperneck 39.3298 -2.77404 1.85338
head 19.9873 -1.1753 1.20585
rclavicle 1.76421e-015 -1.39149e-015
rhumerus -34.7467 -7.23241 -87.8922
rradius 24.7478
rwrist 41.8024
rhand -15.7953 18.0039
rfingers 7.12502
rthumb 10.3976 -11.719
lclavicle 1.76421e-015 -1.39149e-015
lhumerus -23.7312 9.86168 81.0589
lradius 16.6592
lwrist 8.04171
lhand -25.0877 -13.1932
lfingers 7.12502
lthumb 1.4269 16.7818
rfemur 6.72714 31.1081 25.6547
rtibia -6.043
rfoot -43.0498 8.79193
rtoes -13.0277
lfemur 1.22021 -5.05989 -22.1945
ltibia 1.83954
lfoot 6.19238 17.4215
ltoes -40.4419
4
root 26.3975 16.2744 0.893609 35.6468 85.7674 27.3172
lowerback -8.57688 0.736404 -1.4477
upperback -0.879096 1.1472 -0.0968866
thorax 3.87104 0.558041 0.849124
lowerneck -26.5637 -3.45376 -4.76994
upperneck 39.3658 -2.76264 1.88497
head 20.0166 -1.17094 1.23169
rclavicle 3.6154e-015 -7.95139e-015
rhumerus -34.0695 -9.05689 -86.7637
rradius 23.815
rwrist 34.6696
rhand -15.7675 12.9108
rfingers 7.12502
rthumb 10.4244 -16.8108
lclavicle 3.6154e-015 -7.95139e-015
lhumerus -23.5182 9.7371 81.0189
lradius 16.7323
lwrist 8.28612
lhand -25.0661 -13.72
lfingers 7.12502
lthumb 1.44774 16.2548
rfemur 7.85102 29.9068 23.377
rtibia -6.73601
rfoot -41.2937 10.2933
rtoes -20.5742
lfemur 2.54534 -5.42706 -25.1085
ltibia 1.21127
lfoot 6.59287 18.1017
ltoes -40.4449
5
root 26.3931 16.2731 0.893752 34.7966 85.8459 26.338
lowerback -8.73779 0.708943 -1.38125
upperback -0.864947 1.1049 -0.0387235
thorax 3.97674 0.536793 0.869955
lowerneck -26.6016 -3.43794 -4.74787
upperneck 39.3462 -2.72898 1.83862
head 20.0109 -1.16281 1.21182
rclavicle -2.82026e-015 2.38542e-015
rhumerus -33.6631 -9.93754 -86.1255
rradius 22.3548
rwrist 32.4051
rhand -23.4185 6.03008
rfingers 7.12502
rthumb 3.03895 -23.928
lclavicle -2.82026e-015 2.38542e-015
lhumerus -23.286 9.67297 81.0195
lradius 16.8799
lwrist 8.49351
lhand -24.9294 -13.7817
lfingers 7.12502
lthumb 1.57974 16.1922
rfemur 7.52667 29.28 23.2917
rtibia -6.61917
rfoot -40.4435 11.1779
rtoes -22.8158
lfemur 2.36654 -5.6223 -24.9971
ltibia 1.24012
lfoot 6.70902 18.2088
ltoes -40.2498
6
root 26.3922 16.2758 0.897005 35.1704 85.8405 26.7919
lowerback -8.79537 0.658752 -1.54902
upperback -0.739534 1.05148 0.0299644
thorax 4.13635 0.503893 1.03125
lowerneck -26.6265 -3.41936 -4.74181
upperneck 39.2755 -2.69016 1.79819
head 19.9692 -1.15555 1.19773
rclavicle 4.08751e-015 -6.36111e-015
rhumerus -33.2676 -10.1241 -85.8748
rradius 22.3005
rwrist 32.6744
rhand -22.2654 4.91228
rfingers 7.12502
rthumb 4.15246 -25.027
lclavicle 4.08751e-015 -6.36111e-015
lhumerus -23.1367 9.4206 81.1522
lradius 17.2021
lwrist 8.82205
lhand -24.8679 -13.4297
lfingers 7.12502
lthumb 1.63916 16.5438
rfemur 7.51262 28.5471 23.2224
rtibia -6.53773
rfoot -39.6804 11.1933
rtoes -20.7112
lfemur 2.45108 -5.60351 -25.0159
ltibia 1.2377
lfoot 6.66642 18.1778
ltoes -39.7876
7
root 26.3917 16.2789 0.89912 36.0109 85.8358 27.705
lowerback -8.74886 0.616767 -1.70919
upperback -0.681543 1.00755 0.0808137
thorax 4.16828 0.477679 1.16855
lowerneck -26.6627 -3.42477 -4.81251
upperneck 39.2896 -2.67306 1.82679
head 19.9903 -1.15604 1.22857
rclavicle 5.70264e-015 -2.18663e-015
rhumerus -33.0721 -10.2576 -85.6297
rradius 22.2405
rwrist 32.9101
rhand -21.9627 4.59026
rfingers 7.12502
rthumb 4.44476 -25.3431
lclavicle 5.70264e-015 -2.18663e-015
lhumerus -23.0933 9.11525 81.3353
lradius 17.4535
lwrist 9.12544
lhand -24.7593 -13.7216
lfingers 7.12502
lthumb 1.74407 16.251
rfemur 7.50328 27.7903 23.1035
rtibia -6.50482
rfoot -38.9495 11.2271
rtoes -19.2524
lfemur 2.51986 -5.49621 -25.0598
ltibia 1.26348
lfoot 6.58532 18.2101
ltoes -39.5494
8
root 26.3893 16.2784 0.896547 36.5926 85.8271 28.2214
lowerback -8.7371 0.59703 -1.72629
upperback -0.717322 0.982452 0.0922798
thorax 4.1248 0.465791 1.18652
lowerneck -26.6924 -3.46609 -4.91938
upperneck 39.3313 -2.70017 1.87276
head 20.0314 -1.17584 1.2644
rclavicle 5.32991e-015 3.77691e-015
rhumerus -32.9681 -10.4135 -85.3689
rradius 22.052
rwrist 33.3392
rhand -22.7854 5.13824
rfingers 7.12502
rthumb 3.65031 -24.8103
lclavicle 5.32991e-015 3.77691e-015
lhumerus -23.0397 9.09133 81.4455
lradius 17.4632
lwrist 9.11557
lhand -24.577 -14.2957
lfingers 7.12502
lthumb 1.92008 15.6755
rfemur 7.23862 26.8304 22.8263
rtibia -6.41511
rfoot -37.9284 11.4022
rtoes -18.414
lfemur 2.40628 -5.51751 -25.1151
ltibia 1.31397
lfoot 6.65645 18.3724
ltoes -39.4787
9
root 26.3879 16.2781 0.894795 36.8781 85.8427 28.5053
lowerback -8.70349 0.576862 -1.71601
upperback -0.744709 0.953451 0.105836
thorax 4.07839 0.452311 1.19055
lowerneck -26.5618 -3.54216 -5.01355
upperneck 39.2386 -2.77699 1.85815
head 19.9432 -1.22363 1.25319
rclavicle 1.2188e-014 1.43125e-014
rhumerus -32.8983 -10.5373 -85.1266
rradius 21.8175
rwrist 33.5955
rhand -23.2281 5.81171
rfingers 7.12502
rthumb 3.22278 -24.1437
lclavicle 1.2188e-014 1.43125e-014
lhumerus -23.0939 8.81988 81.6421
lradius 17.5533
lwrist 9.28768
lhand -24.5773 -14.247
lfingers 7.12502
lthumb 1.91983 15.7241
rfemur 7.10684 26.0031 22.6682
rtibia -6.32356
rfoot -36.9601 11.6485
rtoes -17.4518
lfemur 2.37179 -5.55385 -25.1419
ltibia 1.33989
lfoot 6.69449 18.4046
ltoes -39.4196
10
root 26.3873 16.279 0.89451 36.8456 85.8725 28.5118
lowerback -8.63955 0.556514 -1.7043
upperback -0.768908 0.922689 0.135121
thorax 4.01816 0.437899 1.20949
lowerneck -26.2946 -3.67265 -5.20302
upperneck 39.0158 -2.92549 1.88687
head 19.7444 -1.30908 1.2609
rclavicle 6.62201e-015 5.96354e-016
rhumerus -32.9067 -10.6678 -84.8929
rradius 21.797
rwrist 33.8099
rhand -22.493 5.80005
rfingers 7.12502
rthumb 3.93272 -24.1434
lclavicle 6.62201e-015 5.96354e-016
lhumerus -23.2709 8.21794 81.9677
lradius 17.7533
lwrist 9.73605
lhand -24.623 -13.8964
lfingers 7.12502
lthumb 1.87566 16.0751
rfemur 7.03121 25.1586 22.5833
rtibia -6.18585
rfoot -35.8932 11.9362
rtoes -15.3689
lfemur 2.41105 -5.53315 -25.1258
ltibia 1.33064
lfoot 6.63689 18.3106
ltoes -39.5977
11
root 26.3878 16.2789 0.893328 36.855 85.8748 28.5245
lowerback -8.59475 0.558593 -1.6743
upperback -0.810823 0.921862 0.136952
thorax 3.95001 0.439206 1.19338
lowerneck -26.0335 -3.93536 -5.57618
upperneck 38.7945 -3.25917 2.0664
head 19.5731 -1.47157 1.3307
rclavicle -8.57259e-016 0
rhumerus -32.9045 -10.753 -84.7138
rradius 21.8402
rwrist 33.9646
rhand -21.8784 5.48698
rfingers 7.12502
rthumb 4.52617 -24.4447
lclavicle -8.57259e-016 0
lhumerus -23.4168 7.78316 82.2386
lradius 17.8036
lwrist 9.92454
lhand -24.4463 -13.6257
lfingers 7.12502
lthumb 2.04633 16.3443
rfemur 6.81332 24.0188 22.3778
rtibia -5.93946
rfoot -34.559 12.0762
rtoes -12.9864
lfemur 2.43752 -5.54531 -25.1448
ltibia 1.29849
lfoot 6.60696 18.2835
ltoes -39.7827
12
root 26.3887 16.2785 0.89321 37.1391 85.8823 28.8093
lowerback -8.54514 0.564219 -1.65649
upperback -0.869149 0.928022 0.11523
thorax 3.86214 0.444364 1.16032
lowerneck -25.6927 -4.33144 -6.17773
upperneck 38.5397 -3.76212 2.39498
head 19.3902 -1.71274 1.47273
rclavicle 2.29845e-015 5.76476e-015
rhumerus -32.9333 -10.7882 -84.5967
rradius 21.8094
rwrist 33.9482
rhand -21.9263 5.50545
rfingers 7.12502
rthumb 4.47993 -24.4272
lclavicle 2.29845e-015 5.76476e-015
lhumerus -23.6075 7.41995 82.4743
lradius 17.8477
lwrist 10.0039
lhand -24.2889 -13.5465
lfingers 7.12502
lthumb 2.19834 16.4219
rfemur 6.53606 22.7272 22.1264
rtibia -5.58268
rfoot -33.1718 12.0187
rtoes -9.31701
lfemur 2.43994 -5.55453 -25.1684
ltibia 1.30728
lfoot 6.57674 18.3009
ltoes -39.7785
13
root 26.3899 16.2787 0.892939 37.2486 85.8834 28.9438
lowerback -8.51962 0.569695 -1.62882
upperback -0.887099 0.933499 0.0868277
thorax 3.82998 0.448256 1.11542
lowerneck -25.2374 -4.84607 -6.93222
upperneck 38.1159 -4.4086 2.75183
head 19.1038 -2.03281 1.61694
rclavicle -2.17421e-015 -5.36719e-015
rhumerus -33.0218 -10.8835 -84.4902
rradius 21.8656
rwrist 33.8704
rhand -21.8826 5.68337
rfingers 7.12502
rthumb 4.52213 -24.2484
lclavicle -2.17421e-015 -5.36719e-015
lhumerus -23.8791 6.93101 82.7545
lradius 18.0474
lwrist 10.2542
lhand -24.2647 -13.7
lfingers 7.12502
lthumb 2.2217 16.2682
rfemur 6.41449 21.9665 22.0311
rtibia -5.31688
rfoot -32.2696 12.2179
rtoes -6.02668
lfemur 2.4757 -5.54988 -25.1781
ltibia 1.29368
lfoot 6.57177 18.3056
ltoes -39.7071
